<mxfile host="app.diagrams.net" modified="2023-06-16T10:57:14.568Z" agent="Mozilla/5.0 (Macintosh; Intel Mac OS X 10_15_7) AppleWebKit/537.36 (KHTML, like Gecko) Chrome/114.0.0.0 Safari/537.36" etag="cIzW5lrrr8YNeq5Ete0n" version="21.3.8" type="device">
  <diagram name="Страница 1" id="U9eMBwSNaWhd92oO-qZ4">
    <mxGraphModel dx="1789" dy="1222" grid="1" gridSize="10" guides="1" tooltips="1" connect="1" arrows="1" fold="1" page="1" pageScale="1" pageWidth="2339" pageHeight="3300" math="0" shadow="0">
      <root>
        <mxCell id="0" />
        <mxCell id="1" parent="0" />
        <mxCell id="5m4GdKWQHqqGuJiY5jLK-1" value="Билет" style="whiteSpace=wrap;html=1;aspect=fixed;" parent="1" vertex="1">
          <mxGeometry x="1280" y="1110" width="80" height="80" as="geometry" />
        </mxCell>
        <mxCell id="5m4GdKWQHqqGuJiY5jLK-2" value="Касса" style="whiteSpace=wrap;html=1;aspect=fixed;" parent="1" vertex="1">
          <mxGeometry x="1620" y="1280" width="80" height="80" as="geometry" />
        </mxCell>
        <mxCell id="5m4GdKWQHqqGuJiY5jLK-5" value="Пассажир" style="whiteSpace=wrap;html=1;aspect=fixed;" parent="1" vertex="1">
          <mxGeometry x="1280" y="1380" width="80" height="80" as="geometry" />
        </mxCell>
        <mxCell id="5m4GdKWQHqqGuJiY5jLK-6" value="Поезд" style="whiteSpace=wrap;html=1;aspect=fixed;" parent="1" vertex="1">
          <mxGeometry x="1280" y="700" width="80" height="80" as="geometry" />
        </mxCell>
        <mxCell id="5m4GdKWQHqqGuJiY5jLK-8" value="" style="endArrow=none;html=1;rounded=0;entryX=0.995;entryY=0.602;entryDx=0;entryDy=0;exitX=0;exitY=0;exitDx=0;exitDy=0;entryPerimeter=0;" parent="1" source="5m4GdKWQHqqGuJiY5jLK-2" target="5m4GdKWQHqqGuJiY5jLK-1" edge="1">
          <mxGeometry width="50" height="50" relative="1" as="geometry">
            <mxPoint x="1220" y="1140" as="sourcePoint" />
            <mxPoint x="1270" y="1090" as="targetPoint" />
          </mxGeometry>
        </mxCell>
        <mxCell id="5m4GdKWQHqqGuJiY5jLK-12" value="Остановка" style="whiteSpace=wrap;html=1;aspect=fixed;" parent="1" vertex="1">
          <mxGeometry x="1965" y="1020" width="80" height="80" as="geometry" />
        </mxCell>
        <mxCell id="5m4GdKWQHqqGuJiY5jLK-16" value="" style="endArrow=none;html=1;rounded=0;entryX=0.5;entryY=1;entryDx=0;entryDy=0;exitX=0.5;exitY=0;exitDx=0;exitDy=0;" parent="1" source="5m4GdKWQHqqGuJiY5jLK-5" target="5m4GdKWQHqqGuJiY5jLK-1" edge="1">
          <mxGeometry width="50" height="50" relative="1" as="geometry">
            <mxPoint x="1310" y="1220" as="sourcePoint" />
            <mxPoint x="1360" y="1170" as="targetPoint" />
          </mxGeometry>
        </mxCell>
        <mxCell id="5m4GdKWQHqqGuJiY5jLK-22" value="" style="endArrow=none;html=1;rounded=0;entryX=0;entryY=0.5;entryDx=0;entryDy=0;exitX=1;exitY=1;exitDx=0;exitDy=0;" parent="1" source="5m4GdKWQHqqGuJiY5jLK-162" target="5m4GdKWQHqqGuJiY5jLK-1" edge="1">
          <mxGeometry width="50" height="50" relative="1" as="geometry">
            <mxPoint x="1020.0000000000002" y="920" as="sourcePoint" />
            <mxPoint x="1460" y="1100" as="targetPoint" />
          </mxGeometry>
        </mxCell>
        <mxCell id="5m4GdKWQHqqGuJiY5jLK-24" value="&lt;span style=&quot;border-bottom: 3px double;&lt;br/&gt;&quot;&gt;TrainID&lt;/span&gt;" style="ellipse;whiteSpace=wrap;html=1;strokeColor=default;" parent="1" vertex="1">
          <mxGeometry x="1300" y="450" width="60" height="40" as="geometry" />
        </mxCell>
        <mxCell id="5m4GdKWQHqqGuJiY5jLK-26" value="TrainName" style="ellipse;whiteSpace=wrap;html=1;" parent="1" vertex="1">
          <mxGeometry x="1460" y="740" width="70" height="40" as="geometry" />
        </mxCell>
        <mxCell id="5m4GdKWQHqqGuJiY5jLK-27" value="TrainType" style="ellipse;whiteSpace=wrap;html=1;" parent="1" vertex="1">
          <mxGeometry x="1530" y="780" width="60" height="40" as="geometry" />
        </mxCell>
        <mxCell id="5m4GdKWQHqqGuJiY5jLK-29" value="" style="endArrow=none;html=1;rounded=0;entryX=0.5;entryY=1;entryDx=0;entryDy=0;exitX=0.75;exitY=0;exitDx=0;exitDy=0;" parent="1" source="dWql0YSoLtNqnmDHUXrx-1" target="5m4GdKWQHqqGuJiY5jLK-26" edge="1">
          <mxGeometry width="50" height="50" relative="1" as="geometry">
            <mxPoint x="1300" y="760" as="sourcePoint" />
            <mxPoint x="1350" y="710" as="targetPoint" />
          </mxGeometry>
        </mxCell>
        <mxCell id="5m4GdKWQHqqGuJiY5jLK-30" value="" style="endArrow=none;html=1;rounded=0;entryX=0.5;entryY=1;entryDx=0;entryDy=0;exitX=0.5;exitY=0;exitDx=0;exitDy=0;" parent="1" source="5m4GdKWQHqqGuJiY5jLK-6" target="5m4GdKWQHqqGuJiY5jLK-24" edge="1">
          <mxGeometry width="50" height="50" relative="1" as="geometry">
            <mxPoint x="1320" y="840" as="sourcePoint" />
            <mxPoint x="1360" y="720" as="targetPoint" />
          </mxGeometry>
        </mxCell>
        <mxCell id="5m4GdKWQHqqGuJiY5jLK-31" value="" style="endArrow=none;html=1;rounded=0;entryX=0.425;entryY=0.964;entryDx=0;entryDy=0;entryPerimeter=0;exitX=0.833;exitY=0;exitDx=0;exitDy=0;exitPerimeter=0;" parent="1" source="dWql0YSoLtNqnmDHUXrx-1" target="5m4GdKWQHqqGuJiY5jLK-27" edge="1">
          <mxGeometry width="50" height="50" relative="1" as="geometry">
            <mxPoint x="1320" y="780" as="sourcePoint" />
            <mxPoint x="1370" y="730" as="targetPoint" />
          </mxGeometry>
        </mxCell>
        <mxCell id="5m4GdKWQHqqGuJiY5jLK-34" value="&lt;u&gt;TrainID&lt;/u&gt;" style="ellipse;whiteSpace=wrap;html=1;" parent="1" vertex="1">
          <mxGeometry x="830" y="670" width="60" height="40" as="geometry" />
        </mxCell>
        <mxCell id="5m4GdKWQHqqGuJiY5jLK-35" value="&lt;span style=&quot;border-bottom: 3px double;&lt;br/&gt;&quot;&gt;CarriageID&lt;/span&gt;" style="ellipse;whiteSpace=wrap;html=1;" parent="1" vertex="1">
          <mxGeometry x="740" y="670" width="70" height="40" as="geometry" />
        </mxCell>
        <mxCell id="5m4GdKWQHqqGuJiY5jLK-36" value="CarriageType" style="ellipse;whiteSpace=wrap;html=1;" parent="1" vertex="1">
          <mxGeometry x="910" y="670" width="80" height="40" as="geometry" />
        </mxCell>
        <mxCell id="5m4GdKWQHqqGuJiY5jLK-37" value="&lt;u&gt;CarriageID&lt;/u&gt;" style="ellipse;whiteSpace=wrap;html=1;" parent="1" vertex="1">
          <mxGeometry x="920" y="1000" width="60" height="40" as="geometry" />
        </mxCell>
        <mxCell id="5m4GdKWQHqqGuJiY5jLK-38" value="" style="endArrow=none;html=1;rounded=0;entryX=0.5;entryY=1;entryDx=0;entryDy=0;exitX=0.5;exitY=0;exitDx=0;exitDy=0;" parent="1" source="5m4GdKWQHqqGuJiY5jLK-136" target="5m4GdKWQHqqGuJiY5jLK-35" edge="1">
          <mxGeometry width="50" height="50" relative="1" as="geometry">
            <mxPoint x="960" y="840" as="sourcePoint" />
            <mxPoint x="1010" y="790" as="targetPoint" />
          </mxGeometry>
        </mxCell>
        <mxCell id="5m4GdKWQHqqGuJiY5jLK-39" value="" style="endArrow=none;html=1;rounded=0;entryX=0.5;entryY=1;entryDx=0;entryDy=0;exitX=0.5;exitY=0;exitDx=0;exitDy=0;" parent="1" source="5m4GdKWQHqqGuJiY5jLK-136" target="5m4GdKWQHqqGuJiY5jLK-34" edge="1">
          <mxGeometry width="50" height="50" relative="1" as="geometry">
            <mxPoint x="970" y="850" as="sourcePoint" />
            <mxPoint x="1020" y="800" as="targetPoint" />
          </mxGeometry>
        </mxCell>
        <mxCell id="5m4GdKWQHqqGuJiY5jLK-40" value="" style="endArrow=none;html=1;rounded=0;entryX=0.5;entryY=1;entryDx=0;entryDy=0;exitX=0.5;exitY=0;exitDx=0;exitDy=0;" parent="1" source="5m4GdKWQHqqGuJiY5jLK-136" target="5m4GdKWQHqqGuJiY5jLK-36" edge="1">
          <mxGeometry width="50" height="50" relative="1" as="geometry">
            <mxPoint x="980" y="860" as="sourcePoint" />
            <mxPoint x="1030" y="810" as="targetPoint" />
          </mxGeometry>
        </mxCell>
        <mxCell id="5m4GdKWQHqqGuJiY5jLK-41" value="" style="endArrow=none;html=1;rounded=0;entryX=1;entryY=0.5;entryDx=0;entryDy=0;exitX=0;exitY=0.5;exitDx=0;exitDy=0;" parent="1" source="5m4GdKWQHqqGuJiY5jLK-162" target="5m4GdKWQHqqGuJiY5jLK-37" edge="1">
          <mxGeometry width="50" height="50" relative="1" as="geometry">
            <mxPoint x="990" y="870" as="sourcePoint" />
            <mxPoint x="1040" y="820" as="targetPoint" />
          </mxGeometry>
        </mxCell>
        <mxCell id="5m4GdKWQHqqGuJiY5jLK-43" value="&lt;span style=&quot;border-bottom: 3px double;&lt;br/&gt;&quot;&gt;StopID&lt;/span&gt;" style="ellipse;whiteSpace=wrap;html=1;" parent="1" vertex="1">
          <mxGeometry x="2040" y="740" width="70" height="40" as="geometry" />
        </mxCell>
        <mxCell id="5m4GdKWQHqqGuJiY5jLK-44" value="&lt;u&gt;StopName&lt;/u&gt;" style="ellipse;whiteSpace=wrap;html=1;" parent="1" vertex="1">
          <mxGeometry x="1965" y="1160" width="70" height="40" as="geometry" />
        </mxCell>
        <mxCell id="5m4GdKWQHqqGuJiY5jLK-46" value="StopType" style="ellipse;whiteSpace=wrap;html=1;" parent="1" vertex="1">
          <mxGeometry x="2060" y="1160" width="70" height="40" as="geometry" />
        </mxCell>
        <mxCell id="5m4GdKWQHqqGuJiY5jLK-47" value="ArrivalTime" style="ellipse;whiteSpace=wrap;html=1;" parent="1" vertex="1">
          <mxGeometry x="1955" y="730" width="70" height="40" as="geometry" />
        </mxCell>
        <mxCell id="5m4GdKWQHqqGuJiY5jLK-48" value="ParkingTime" style="ellipse;whiteSpace=wrap;html=1;" parent="1" vertex="1">
          <mxGeometry x="2115" y="850" width="80" height="40" as="geometry" />
        </mxCell>
        <mxCell id="5m4GdKWQHqqGuJiY5jLK-49" value="DepartureTime" style="ellipse;whiteSpace=wrap;html=1;" parent="1" vertex="1">
          <mxGeometry x="2105" y="900" width="90" height="40" as="geometry" />
        </mxCell>
        <mxCell id="5m4GdKWQHqqGuJiY5jLK-51" value="" style="endArrow=none;html=1;rounded=0;entryX=0.5;entryY=1;entryDx=0;entryDy=0;exitX=1;exitY=0;exitDx=0;exitDy=0;" parent="1" source="146flQkY3l9YvQhqU9-r-3" target="5m4GdKWQHqqGuJiY5jLK-43" edge="1">
          <mxGeometry width="50" height="50" relative="1" as="geometry">
            <mxPoint x="1670" y="920" as="sourcePoint" />
            <mxPoint x="1720" y="870" as="targetPoint" />
          </mxGeometry>
        </mxCell>
        <mxCell id="5m4GdKWQHqqGuJiY5jLK-53" value="" style="endArrow=none;html=1;rounded=0;exitX=0.5;exitY=1;exitDx=0;exitDy=0;entryX=0.5;entryY=0;entryDx=0;entryDy=0;" parent="1" source="5m4GdKWQHqqGuJiY5jLK-12" target="5m4GdKWQHqqGuJiY5jLK-44" edge="1">
          <mxGeometry width="50" height="50" relative="1" as="geometry">
            <mxPoint x="1815" y="923" as="sourcePoint" />
            <mxPoint x="2035" y="1160" as="targetPoint" />
          </mxGeometry>
        </mxCell>
        <mxCell id="5m4GdKWQHqqGuJiY5jLK-54" value="" style="endArrow=none;html=1;rounded=0;entryX=0.5;entryY=1;entryDx=0;entryDy=0;exitX=0.5;exitY=0;exitDx=0;exitDy=0;" parent="1" source="146flQkY3l9YvQhqU9-r-3" target="5m4GdKWQHqqGuJiY5jLK-47" edge="1">
          <mxGeometry width="50" height="50" relative="1" as="geometry">
            <mxPoint x="1700" y="950" as="sourcePoint" />
            <mxPoint x="1750" y="900" as="targetPoint" />
          </mxGeometry>
        </mxCell>
        <mxCell id="5m4GdKWQHqqGuJiY5jLK-55" value="" style="endArrow=none;html=1;rounded=0;entryX=0;entryY=0.5;entryDx=0;entryDy=0;exitX=0.5;exitY=1;exitDx=0;exitDy=0;" parent="1" source="146flQkY3l9YvQhqU9-r-3" target="5m4GdKWQHqqGuJiY5jLK-49" edge="1">
          <mxGeometry width="50" height="50" relative="1" as="geometry">
            <mxPoint x="1710" y="960" as="sourcePoint" />
            <mxPoint x="1760" y="910" as="targetPoint" />
          </mxGeometry>
        </mxCell>
        <mxCell id="5m4GdKWQHqqGuJiY5jLK-56" value="" style="endArrow=none;html=1;rounded=0;entryX=0.5;entryY=0;entryDx=0;entryDy=0;exitX=1;exitY=1;exitDx=0;exitDy=0;" parent="1" source="5m4GdKWQHqqGuJiY5jLK-12" target="5m4GdKWQHqqGuJiY5jLK-46" edge="1">
          <mxGeometry width="50" height="50" relative="1" as="geometry">
            <mxPoint x="1805" y="850" as="sourcePoint" />
            <mxPoint x="2125" y="1160" as="targetPoint" />
          </mxGeometry>
        </mxCell>
        <mxCell id="5m4GdKWQHqqGuJiY5jLK-57" value="" style="endArrow=none;html=1;rounded=0;entryX=0;entryY=0.5;entryDx=0;entryDy=0;exitX=0.975;exitY=0.367;exitDx=0;exitDy=0;exitPerimeter=0;" parent="1" source="146flQkY3l9YvQhqU9-r-3" target="5m4GdKWQHqqGuJiY5jLK-48" edge="1">
          <mxGeometry width="50" height="50" relative="1" as="geometry">
            <mxPoint x="1660" y="930" as="sourcePoint" />
            <mxPoint x="1710" y="910" as="targetPoint" />
          </mxGeometry>
        </mxCell>
        <mxCell id="5m4GdKWQHqqGuJiY5jLK-67" value="&lt;u&gt;stopName&lt;/u&gt;" style="ellipse;whiteSpace=wrap;html=1;" parent="1" vertex="1">
          <mxGeometry x="1750" y="1300" width="80" height="40" as="geometry" />
        </mxCell>
        <mxCell id="5m4GdKWQHqqGuJiY5jLK-68" value="&lt;span style=&quot;border-bottom: 3px double;&lt;br/&gt;&quot;&gt;CashRegisterID&lt;/span&gt;" style="ellipse;whiteSpace=wrap;html=1;" parent="1" vertex="1">
          <mxGeometry x="1750" y="1250" width="100" height="40" as="geometry" />
        </mxCell>
        <mxCell id="5m4GdKWQHqqGuJiY5jLK-69" value="Address" style="ellipse;whiteSpace=wrap;html=1;" parent="1" vertex="1">
          <mxGeometry x="1750" y="1370" width="80" height="40" as="geometry" />
        </mxCell>
        <mxCell id="5m4GdKWQHqqGuJiY5jLK-70" value="" style="endArrow=none;html=1;rounded=0;entryX=0;entryY=0.5;entryDx=0;entryDy=0;" parent="1" target="5m4GdKWQHqqGuJiY5jLK-68" edge="1">
          <mxGeometry width="50" height="50" relative="1" as="geometry">
            <mxPoint x="1700" y="1280" as="sourcePoint" />
            <mxPoint x="1660" y="1250" as="targetPoint" />
          </mxGeometry>
        </mxCell>
        <mxCell id="5m4GdKWQHqqGuJiY5jLK-71" value="" style="endArrow=none;html=1;rounded=0;entryX=0;entryY=0.5;entryDx=0;entryDy=0;exitX=1;exitY=0.5;exitDx=0;exitDy=0;" parent="1" target="5m4GdKWQHqqGuJiY5jLK-67" edge="1">
          <mxGeometry width="50" height="50" relative="1" as="geometry">
            <mxPoint x="1700" y="1320" as="sourcePoint" />
            <mxPoint x="1670" y="1260" as="targetPoint" />
          </mxGeometry>
        </mxCell>
        <mxCell id="5m4GdKWQHqqGuJiY5jLK-72" value="" style="endArrow=none;html=1;rounded=0;entryX=0;entryY=0.5;entryDx=0;entryDy=0;exitX=1;exitY=1;exitDx=0;exitDy=0;" parent="1" target="5m4GdKWQHqqGuJiY5jLK-69" edge="1">
          <mxGeometry width="50" height="50" relative="1" as="geometry">
            <mxPoint x="1700" y="1360" as="sourcePoint" />
            <mxPoint x="1680" y="1270" as="targetPoint" />
          </mxGeometry>
        </mxCell>
        <mxCell id="5m4GdKWQHqqGuJiY5jLK-73" value="PassportData" style="ellipse;whiteSpace=wrap;html=1;" parent="1" vertex="1">
          <mxGeometry x="1500" y="1540" width="80" height="40" as="geometry" />
        </mxCell>
        <mxCell id="5m4GdKWQHqqGuJiY5jLK-74" value="&lt;span style=&quot;border-bottom: 3px double;&lt;br/&gt;&quot;&gt;PassengerID&lt;/span&gt;" style="ellipse;whiteSpace=wrap;html=1;" parent="1" vertex="1">
          <mxGeometry x="1095" y="1540" width="80" height="40" as="geometry" />
        </mxCell>
        <mxCell id="5m4GdKWQHqqGuJiY5jLK-75" value="LastName" style="ellipse;whiteSpace=wrap;html=1;" parent="1" vertex="1">
          <mxGeometry x="1185" y="1540" width="80" height="40" as="geometry" />
        </mxCell>
        <mxCell id="5m4GdKWQHqqGuJiY5jLK-76" value="FirstName" style="ellipse;whiteSpace=wrap;html=1;" parent="1" vertex="1">
          <mxGeometry x="1280" y="1540" width="80" height="40" as="geometry" />
        </mxCell>
        <mxCell id="5m4GdKWQHqqGuJiY5jLK-77" value="Patronymic" style="ellipse;whiteSpace=wrap;html=1;" parent="1" vertex="1">
          <mxGeometry x="1400" y="1540" width="80" height="40" as="geometry" />
        </mxCell>
        <mxCell id="5m4GdKWQHqqGuJiY5jLK-78" value="" style="endArrow=none;html=1;rounded=0;entryX=0;entryY=1;entryDx=0;entryDy=0;exitX=0.5;exitY=0;exitDx=0;exitDy=0;" parent="1" source="5m4GdKWQHqqGuJiY5jLK-74" target="5m4GdKWQHqqGuJiY5jLK-5" edge="1">
          <mxGeometry width="50" height="50" relative="1" as="geometry">
            <mxPoint x="1150" y="1450" as="sourcePoint" />
            <mxPoint x="1200" y="1400" as="targetPoint" />
          </mxGeometry>
        </mxCell>
        <mxCell id="5m4GdKWQHqqGuJiY5jLK-79" value="" style="endArrow=none;html=1;rounded=0;entryX=0;entryY=1;entryDx=0;entryDy=0;exitX=0.5;exitY=0;exitDx=0;exitDy=0;" parent="1" source="5m4GdKWQHqqGuJiY5jLK-75" target="5m4GdKWQHqqGuJiY5jLK-5" edge="1">
          <mxGeometry width="50" height="50" relative="1" as="geometry">
            <mxPoint x="1215" y="1450" as="sourcePoint" />
            <mxPoint x="1265" y="1400" as="targetPoint" />
          </mxGeometry>
        </mxCell>
        <mxCell id="5m4GdKWQHqqGuJiY5jLK-80" value="" style="endArrow=none;html=1;rounded=0;entryX=0.5;entryY=1;entryDx=0;entryDy=0;exitX=0.5;exitY=0;exitDx=0;exitDy=0;" parent="1" source="5m4GdKWQHqqGuJiY5jLK-76" target="5m4GdKWQHqqGuJiY5jLK-5" edge="1">
          <mxGeometry width="50" height="50" relative="1" as="geometry">
            <mxPoint x="1170" y="1470" as="sourcePoint" />
            <mxPoint x="1220" y="1420" as="targetPoint" />
          </mxGeometry>
        </mxCell>
        <mxCell id="5m4GdKWQHqqGuJiY5jLK-81" value="" style="endArrow=none;html=1;rounded=0;entryX=1;entryY=1;entryDx=0;entryDy=0;exitX=0.5;exitY=0;exitDx=0;exitDy=0;" parent="1" source="5m4GdKWQHqqGuJiY5jLK-77" target="5m4GdKWQHqqGuJiY5jLK-5" edge="1">
          <mxGeometry width="50" height="50" relative="1" as="geometry">
            <mxPoint x="1180" y="1480" as="sourcePoint" />
            <mxPoint x="1230" y="1430" as="targetPoint" />
          </mxGeometry>
        </mxCell>
        <mxCell id="5m4GdKWQHqqGuJiY5jLK-82" value="" style="endArrow=none;html=1;rounded=0;entryX=1;entryY=1;entryDx=0;entryDy=0;exitX=0.5;exitY=0;exitDx=0;exitDy=0;" parent="1" source="5m4GdKWQHqqGuJiY5jLK-73" target="5m4GdKWQHqqGuJiY5jLK-5" edge="1">
          <mxGeometry width="50" height="50" relative="1" as="geometry">
            <mxPoint x="1190" y="1490" as="sourcePoint" />
            <mxPoint x="1240" y="1440" as="targetPoint" />
          </mxGeometry>
        </mxCell>
        <mxCell id="5m4GdKWQHqqGuJiY5jLK-83" value="&lt;span style=&quot;border-bottom: 3px double;&lt;br/&gt;&quot;&gt;TicketID&lt;/span&gt;" style="ellipse;whiteSpace=wrap;html=1;" parent="1" vertex="1">
          <mxGeometry x="770" y="1040" width="80" height="40" as="geometry" />
        </mxCell>
        <mxCell id="5m4GdKWQHqqGuJiY5jLK-84" value="&lt;u&gt;PassengerID&lt;/u&gt;" style="ellipse;whiteSpace=wrap;html=1;" parent="1" vertex="1">
          <mxGeometry x="770" y="1100" width="80" height="40" as="geometry" />
        </mxCell>
        <mxCell id="5m4GdKWQHqqGuJiY5jLK-86" value="&lt;u style=&quot;border-color: var(--border-color);&quot;&gt;StationNameFrom&lt;/u&gt;" style="ellipse;whiteSpace=wrap;html=1;" parent="1" vertex="1">
          <mxGeometry x="730" y="1270" width="130" height="40" as="geometry" />
        </mxCell>
        <mxCell id="5m4GdKWQHqqGuJiY5jLK-90" value="&lt;u&gt;CashRegisterID&lt;/u&gt;" style="ellipse;whiteSpace=wrap;html=1;" parent="1" vertex="1">
          <mxGeometry x="770" y="1150" width="90" height="40" as="geometry" />
        </mxCell>
        <mxCell id="5m4GdKWQHqqGuJiY5jLK-91" value="Price" style="ellipse;whiteSpace=wrap;html=1;" parent="1" vertex="1">
          <mxGeometry x="775" y="1210" width="80" height="40" as="geometry" />
        </mxCell>
        <mxCell id="5m4GdKWQHqqGuJiY5jLK-92" value="" style="endArrow=none;html=1;rounded=0;entryX=0;entryY=1;entryDx=0;entryDy=0;exitX=1;exitY=0.5;exitDx=0;exitDy=0;" parent="1" source="5m4GdKWQHqqGuJiY5jLK-83" target="5m4GdKWQHqqGuJiY5jLK-1" edge="1">
          <mxGeometry width="50" height="50" relative="1" as="geometry">
            <mxPoint x="1090" y="1120" as="sourcePoint" />
            <mxPoint x="1140" y="1070" as="targetPoint" />
          </mxGeometry>
        </mxCell>
        <mxCell id="5m4GdKWQHqqGuJiY5jLK-93" value="" style="endArrow=none;html=1;rounded=0;entryX=0;entryY=1;entryDx=0;entryDy=0;exitX=1;exitY=0.5;exitDx=0;exitDy=0;" parent="1" source="5m4GdKWQHqqGuJiY5jLK-84" target="5m4GdKWQHqqGuJiY5jLK-1" edge="1">
          <mxGeometry width="50" height="50" relative="1" as="geometry">
            <mxPoint x="1100" y="1130" as="sourcePoint" />
            <mxPoint x="1150" y="1080" as="targetPoint" />
          </mxGeometry>
        </mxCell>
        <mxCell id="5m4GdKWQHqqGuJiY5jLK-95" value="" style="endArrow=none;html=1;rounded=0;entryX=0;entryY=1;entryDx=0;entryDy=0;exitX=1;exitY=0.5;exitDx=0;exitDy=0;" parent="1" source="5m4GdKWQHqqGuJiY5jLK-86" target="5m4GdKWQHqqGuJiY5jLK-1" edge="1">
          <mxGeometry width="50" height="50" relative="1" as="geometry">
            <mxPoint x="1120" y="1150" as="sourcePoint" />
            <mxPoint x="1170" y="1100" as="targetPoint" />
          </mxGeometry>
        </mxCell>
        <mxCell id="5m4GdKWQHqqGuJiY5jLK-97" value="" style="endArrow=none;html=1;rounded=0;entryX=0;entryY=1;entryDx=0;entryDy=0;exitX=1;exitY=0.5;exitDx=0;exitDy=0;" parent="1" source="5m4GdKWQHqqGuJiY5jLK-90" target="5m4GdKWQHqqGuJiY5jLK-1" edge="1">
          <mxGeometry width="50" height="50" relative="1" as="geometry">
            <mxPoint x="1140" y="1170" as="sourcePoint" />
            <mxPoint x="1190" y="1120" as="targetPoint" />
          </mxGeometry>
        </mxCell>
        <mxCell id="5m4GdKWQHqqGuJiY5jLK-98" value="" style="endArrow=none;html=1;rounded=0;entryX=0;entryY=1;entryDx=0;entryDy=0;exitX=1;exitY=0.5;exitDx=0;exitDy=0;" parent="1" source="5m4GdKWQHqqGuJiY5jLK-91" target="5m4GdKWQHqqGuJiY5jLK-1" edge="1">
          <mxGeometry width="50" height="50" relative="1" as="geometry">
            <mxPoint x="1150" y="1180" as="sourcePoint" />
            <mxPoint x="1200" y="1130" as="targetPoint" />
          </mxGeometry>
        </mxCell>
        <mxCell id="5m4GdKWQHqqGuJiY5jLK-105" value="1" style="text;html=1;strokeColor=none;fillColor=none;align=center;verticalAlign=middle;whiteSpace=wrap;rounded=0;" parent="1" vertex="1">
          <mxGeometry x="1280" y="880" width="60" height="30" as="geometry" />
        </mxCell>
        <mxCell id="5m4GdKWQHqqGuJiY5jLK-107" value="m" style="text;html=1;strokeColor=none;fillColor=none;align=center;verticalAlign=middle;whiteSpace=wrap;rounded=0;" parent="1" vertex="1">
          <mxGeometry x="1280" y="1220" width="60" height="30" as="geometry" />
        </mxCell>
        <mxCell id="5m4GdKWQHqqGuJiY5jLK-108" value="1" style="text;html=1;strokeColor=none;fillColor=none;align=center;verticalAlign=middle;whiteSpace=wrap;rounded=0;" parent="1" vertex="1">
          <mxGeometry x="1280" y="1345" width="60" height="30" as="geometry" />
        </mxCell>
        <mxCell id="5m4GdKWQHqqGuJiY5jLK-110" value="м" style="text;html=1;strokeColor=none;fillColor=none;align=center;verticalAlign=middle;whiteSpace=wrap;rounded=0;" parent="1" vertex="1">
          <mxGeometry x="1050" y="950" width="60" height="30" as="geometry" />
        </mxCell>
        <mxCell id="5m4GdKWQHqqGuJiY5jLK-111" value="m" style="text;html=1;strokeColor=none;fillColor=none;align=center;verticalAlign=middle;whiteSpace=wrap;rounded=0;" parent="1" vertex="1">
          <mxGeometry x="1230" y="1100" width="60" height="30" as="geometry" />
        </mxCell>
        <mxCell id="5m4GdKWQHqqGuJiY5jLK-112" value="1" style="text;html=1;strokeColor=none;fillColor=none;align=center;verticalAlign=middle;whiteSpace=wrap;rounded=0;" parent="1" vertex="1">
          <mxGeometry x="990" y="880" width="60" height="30" as="geometry" />
        </mxCell>
        <mxCell id="5m4GdKWQHqqGuJiY5jLK-113" value="м" style="text;html=1;strokeColor=none;fillColor=none;align=center;verticalAlign=middle;whiteSpace=wrap;rounded=0;" parent="1" vertex="1">
          <mxGeometry x="1340" y="1135" width="60" height="30" as="geometry" />
        </mxCell>
        <mxCell id="5m4GdKWQHqqGuJiY5jLK-136" value="Вагон" style="shape=trapezoid;perimeter=trapezoidPerimeter;whiteSpace=wrap;html=1;fixedSize=1;" parent="1" vertex="1">
          <mxGeometry x="910" y="820" width="120" height="60" as="geometry" />
        </mxCell>
        <mxCell id="5m4GdKWQHqqGuJiY5jLK-146" value="&lt;span style=&quot;border-bottom: 3px double;&lt;br/&gt;&quot;&gt;ScheduleID&amp;nbsp;&lt;/span&gt;" style="ellipse;whiteSpace=wrap;html=1;" parent="1" vertex="1">
          <mxGeometry x="1400" y="1020" width="80" height="40" as="geometry" />
        </mxCell>
        <mxCell id="5m4GdKWQHqqGuJiY5jLK-147" value="TrainStatus" style="ellipse;whiteSpace=wrap;html=1;" parent="1" vertex="1">
          <mxGeometry x="1100" y="870" width="85" height="40" as="geometry" />
        </mxCell>
        <mxCell id="5m4GdKWQHqqGuJiY5jLK-149" value="" style="endArrow=none;html=1;rounded=0;entryX=0.317;entryY=0.067;entryDx=0;entryDy=0;entryPerimeter=0;exitX=1;exitY=1;exitDx=0;exitDy=0;" parent="1" source="dWql0YSoLtNqnmDHUXrx-1" target="5m4GdKWQHqqGuJiY5jLK-146" edge="1">
          <mxGeometry width="50" height="50" relative="1" as="geometry">
            <mxPoint x="1380" y="940" as="sourcePoint" />
            <mxPoint x="1360" y="1010" as="targetPoint" />
          </mxGeometry>
        </mxCell>
        <mxCell id="5m4GdKWQHqqGuJiY5jLK-150" value="" style="endArrow=none;html=1;rounded=0;entryX=0.5;entryY=1;entryDx=0;entryDy=0;exitX=0;exitY=0.5;exitDx=0;exitDy=0;" parent="1" source="dWql0YSoLtNqnmDHUXrx-1" target="5m4GdKWQHqqGuJiY5jLK-147" edge="1">
          <mxGeometry width="50" height="50" relative="1" as="geometry">
            <mxPoint x="1455" y="1190" as="sourcePoint" />
            <mxPoint x="1360" y="1010" as="targetPoint" />
          </mxGeometry>
        </mxCell>
        <mxCell id="5m4GdKWQHqqGuJiY5jLK-151" value="AdeddTrain" style="ellipse;whiteSpace=wrap;html=1;" parent="1" vertex="1">
          <mxGeometry x="1500" y="1020" width="85" height="40" as="geometry" />
        </mxCell>
        <mxCell id="5m4GdKWQHqqGuJiY5jLK-152" value="AdeddTrainID" style="ellipse;whiteSpace=wrap;html=1;" parent="1" vertex="1">
          <mxGeometry x="1630" y="890" width="85" height="40" as="geometry" />
        </mxCell>
        <mxCell id="5m4GdKWQHqqGuJiY5jLK-153" value="" style="endArrow=none;html=1;rounded=0;entryX=1;entryY=1;entryDx=0;entryDy=0;exitX=0;exitY=0.5;exitDx=0;exitDy=0;" parent="1" target="dWql0YSoLtNqnmDHUXrx-1" edge="1" source="5m4GdKWQHqqGuJiY5jLK-151">
          <mxGeometry width="50" height="50" relative="1" as="geometry">
            <mxPoint x="1460" y="1000" as="sourcePoint" />
            <mxPoint x="1485" y="1190" as="targetPoint" />
          </mxGeometry>
        </mxCell>
        <mxCell id="5m4GdKWQHqqGuJiY5jLK-154" value="" style="endArrow=none;html=1;rounded=0;entryX=0.5;entryY=1;entryDx=0;entryDy=0;exitX=1;exitY=0.5;exitDx=0;exitDy=0;" parent="1" source="dWql0YSoLtNqnmDHUXrx-1" target="5m4GdKWQHqqGuJiY5jLK-152" edge="1">
          <mxGeometry width="50" height="50" relative="1" as="geometry">
            <mxPoint x="1485" y="1190" as="sourcePoint" />
            <mxPoint x="1360" y="900" as="targetPoint" />
          </mxGeometry>
        </mxCell>
        <mxCell id="5m4GdKWQHqqGuJiY5jLK-156" value="TicketStatus" style="ellipse;whiteSpace=wrap;html=1;" parent="1" vertex="1">
          <mxGeometry x="775" y="1330" width="80" height="40" as="geometry" />
        </mxCell>
        <mxCell id="5m4GdKWQHqqGuJiY5jLK-157" value="" style="endArrow=none;html=1;rounded=0;entryX=0;entryY=1;entryDx=0;entryDy=0;exitX=1;exitY=0.5;exitDx=0;exitDy=0;" parent="1" source="5m4GdKWQHqqGuJiY5jLK-156" target="5m4GdKWQHqqGuJiY5jLK-1" edge="1">
          <mxGeometry width="50" height="50" relative="1" as="geometry">
            <mxPoint x="1020" y="1490" as="sourcePoint" />
            <mxPoint x="1290" y="1200" as="targetPoint" />
          </mxGeometry>
        </mxCell>
        <mxCell id="5m4GdKWQHqqGuJiY5jLK-163" value="" style="endArrow=none;html=1;rounded=0;entryX=0;entryY=0;entryDx=0;entryDy=0;exitX=0.5;exitY=1;exitDx=0;exitDy=0;" parent="1" source="5m4GdKWQHqqGuJiY5jLK-136" target="5m4GdKWQHqqGuJiY5jLK-162" edge="1">
          <mxGeometry width="50" height="50" relative="1" as="geometry">
            <mxPoint x="990" y="910" as="sourcePoint" />
            <mxPoint x="1280" y="1150" as="targetPoint" />
          </mxGeometry>
        </mxCell>
        <mxCell id="5m4GdKWQHqqGuJiY5jLK-162" value="Место" style="whiteSpace=wrap;html=1;aspect=fixed;" parent="1" vertex="1">
          <mxGeometry x="1070" y="980" width="80" height="80" as="geometry" />
        </mxCell>
        <mxCell id="5m4GdKWQHqqGuJiY5jLK-164" value="&lt;u&gt;SeatID&lt;/u&gt;" style="ellipse;whiteSpace=wrap;html=1;" parent="1" vertex="1">
          <mxGeometry x="785" y="1400" width="60" height="40" as="geometry" />
        </mxCell>
        <mxCell id="5m4GdKWQHqqGuJiY5jLK-165" value="" style="endArrow=none;html=1;rounded=0;exitX=1;exitY=0.5;exitDx=0;exitDy=0;" parent="1" source="5m4GdKWQHqqGuJiY5jLK-164" edge="1">
          <mxGeometry width="50" height="50" relative="1" as="geometry">
            <mxPoint x="870" y="1580" as="sourcePoint" />
            <mxPoint x="1280" y="1190" as="targetPoint" />
          </mxGeometry>
        </mxCell>
        <mxCell id="5m4GdKWQHqqGuJiY5jLK-166" value="1" style="text;html=1;strokeColor=none;fillColor=none;align=center;verticalAlign=middle;whiteSpace=wrap;rounded=0;" parent="1" vertex="1">
          <mxGeometry x="1150" y="1045" width="60" height="30" as="geometry" />
        </mxCell>
        <mxCell id="5m4GdKWQHqqGuJiY5jLK-167" value="&lt;span style=&quot;border-bottom: 3px double;&lt;br/&gt;&quot;&gt;SeatID&lt;/span&gt;" style="ellipse;whiteSpace=wrap;html=1;" parent="1" vertex="1">
          <mxGeometry x="930" y="1040" width="60" height="40" as="geometry" />
        </mxCell>
        <mxCell id="5m4GdKWQHqqGuJiY5jLK-168" value="" style="endArrow=none;html=1;rounded=0;entryX=1;entryY=0.5;entryDx=0;entryDy=0;exitX=0;exitY=1;exitDx=0;exitDy=0;" parent="1" source="5m4GdKWQHqqGuJiY5jLK-162" target="5m4GdKWQHqqGuJiY5jLK-167" edge="1">
          <mxGeometry width="50" height="50" relative="1" as="geometry">
            <mxPoint x="1090" y="1060" as="sourcePoint" />
            <mxPoint x="1000" y="1030" as="targetPoint" />
          </mxGeometry>
        </mxCell>
        <mxCell id="5m4GdKWQHqqGuJiY5jLK-174" value="1" style="text;html=1;strokeColor=none;fillColor=none;align=center;verticalAlign=middle;whiteSpace=wrap;rounded=0;" parent="1" vertex="1">
          <mxGeometry x="1420" y="875" width="60" height="30" as="geometry" />
        </mxCell>
        <mxCell id="5m4GdKWQHqqGuJiY5jLK-179" value="&lt;span style=&quot;color: rgb(0, 0, 0); font-family: Helvetica; font-size: 12px; font-style: normal; font-variant-ligatures: normal; font-variant-caps: normal; font-weight: 400; letter-spacing: normal; orphans: 2; text-align: center; text-indent: 0px; text-transform: none; widows: 2; word-spacing: 0px; -webkit-text-stroke-width: 0px; background-color: rgb(251, 251, 251); text-decoration-thickness: initial; text-decoration-style: initial; text-decoration-color: initial; float: none; display: inline !important;&quot;&gt;1&lt;/span&gt;" style="text;whiteSpace=wrap;html=1;" parent="1" vertex="1">
          <mxGeometry x="1590" y="1240" width="40" height="40" as="geometry" />
        </mxCell>
        <mxCell id="dWql0YSoLtNqnmDHUXrx-1" value="Расписание" style="rounded=0;whiteSpace=wrap;html=1;" parent="1" vertex="1">
          <mxGeometry x="1260" y="910" width="120" height="60" as="geometry" />
        </mxCell>
        <mxCell id="RNkFD1wAyUpK9NKJ0wDk-3" value="&lt;u&gt;StationNameTo&lt;/u&gt;" style="ellipse;whiteSpace=wrap;html=1;strokeColor=default;" parent="1" vertex="1">
          <mxGeometry x="1185" y="820" width="120" height="40" as="geometry" />
        </mxCell>
        <mxCell id="RNkFD1wAyUpK9NKJ0wDk-4" value="&lt;u&gt;StationNameFrom&lt;/u&gt;" style="ellipse;whiteSpace=wrap;html=1;" parent="1" vertex="1">
          <mxGeometry x="1200" y="1020" width="120" height="40" as="geometry" />
        </mxCell>
        <mxCell id="RNkFD1wAyUpK9NKJ0wDk-5" value="" style="endArrow=none;html=1;rounded=0;entryX=0.5;entryY=1;entryDx=0;entryDy=0;exitX=0;exitY=0;exitDx=0;exitDy=0;" parent="1" target="RNkFD1wAyUpK9NKJ0wDk-3" edge="1" source="dWql0YSoLtNqnmDHUXrx-1">
          <mxGeometry width="50" height="50" relative="1" as="geometry">
            <mxPoint x="1320" y="700" as="sourcePoint" />
            <mxPoint x="1495" y="500" as="targetPoint" />
          </mxGeometry>
        </mxCell>
        <mxCell id="RNkFD1wAyUpK9NKJ0wDk-6" value="" style="endArrow=none;html=1;rounded=0;exitX=0.5;exitY=1;exitDx=0;exitDy=0;entryX=0.5;entryY=0;entryDx=0;entryDy=0;" parent="1" target="RNkFD1wAyUpK9NKJ0wDk-4" edge="1" source="dWql0YSoLtNqnmDHUXrx-1">
          <mxGeometry width="50" height="50" relative="1" as="geometry">
            <mxPoint x="1320" y="700" as="sourcePoint" />
            <mxPoint x="1320" y="1030" as="targetPoint" />
          </mxGeometry>
        </mxCell>
        <mxCell id="RNkFD1wAyUpK9NKJ0wDk-8" value="departureTime" style="ellipse;whiteSpace=wrap;html=1;" parent="1" vertex="1">
          <mxGeometry x="1627.5" y="945" width="90" height="40" as="geometry" />
        </mxCell>
        <mxCell id="RNkFD1wAyUpK9NKJ0wDk-9" value="arrivalTime" style="ellipse;whiteSpace=wrap;html=1;" parent="1" vertex="1">
          <mxGeometry x="1320" y="1045" width="70" height="40" as="geometry" />
        </mxCell>
        <mxCell id="RNkFD1wAyUpK9NKJ0wDk-10" value="" style="endArrow=none;html=1;rounded=0;entryX=0.75;entryY=1;entryDx=0;entryDy=0;exitX=0.5;exitY=0;exitDx=0;exitDy=0;" parent="1" source="RNkFD1wAyUpK9NKJ0wDk-9" target="dWql0YSoLtNqnmDHUXrx-1" edge="1">
          <mxGeometry width="50" height="50" relative="1" as="geometry">
            <mxPoint x="1602.5" y="750" as="sourcePoint" />
            <mxPoint x="1392.5" y="540" as="targetPoint" />
          </mxGeometry>
        </mxCell>
        <mxCell id="RNkFD1wAyUpK9NKJ0wDk-11" value="" style="endArrow=none;html=1;rounded=0;entryX=0;entryY=0.5;entryDx=0;entryDy=0;exitX=1;exitY=0.5;exitDx=0;exitDy=0;" parent="1" source="dWql0YSoLtNqnmDHUXrx-1" target="RNkFD1wAyUpK9NKJ0wDk-8" edge="1">
          <mxGeometry width="50" height="50" relative="1" as="geometry">
            <mxPoint x="1230" y="700" as="sourcePoint" />
            <mxPoint x="1020" y="490" as="targetPoint" />
          </mxGeometry>
        </mxCell>
        <mxCell id="RNkFD1wAyUpK9NKJ0wDk-13" value="" style="endArrow=none;html=1;rounded=0;entryX=0.5;entryY=1;entryDx=0;entryDy=0;exitX=1;exitY=0.5;exitDx=0;exitDy=0;" parent="1" source="5m4GdKWQHqqGuJiY5jLK-12" target="146flQkY3l9YvQhqU9-r-10" edge="1">
          <mxGeometry width="50" height="50" relative="1" as="geometry">
            <mxPoint x="1670" y="850" as="sourcePoint" />
            <mxPoint x="1681.7157287525383" y="754.1421356237308" as="targetPoint" />
          </mxGeometry>
        </mxCell>
        <mxCell id="146flQkY3l9YvQhqU9-r-1" value="" style="endArrow=none;html=1;rounded=0;exitX=0.5;exitY=0;exitDx=0;exitDy=0;" edge="1" parent="1" source="dWql0YSoLtNqnmDHUXrx-1">
          <mxGeometry width="50" height="50" relative="1" as="geometry">
            <mxPoint x="1565" y="950" as="sourcePoint" />
            <mxPoint x="1320" y="780" as="targetPoint" />
          </mxGeometry>
        </mxCell>
        <mxCell id="146flQkY3l9YvQhqU9-r-2" value="" style="endArrow=none;html=1;rounded=0;entryX=0;entryY=0.5;entryDx=0;entryDy=0;exitX=1;exitY=0.5;exitDx=0;exitDy=0;" edge="1" parent="1" source="5m4GdKWQHqqGuJiY5jLK-136" target="5m4GdKWQHqqGuJiY5jLK-6">
          <mxGeometry width="50" height="50" relative="1" as="geometry">
            <mxPoint x="1069" y="780" as="sourcePoint" />
            <mxPoint x="1169" y="880" as="targetPoint" />
          </mxGeometry>
        </mxCell>
        <mxCell id="146flQkY3l9YvQhqU9-r-3" value="пункт остановки" style="whiteSpace=wrap;html=1;aspect=fixed;" vertex="1" parent="1">
          <mxGeometry x="1950" y="840" width="80" height="80" as="geometry" />
        </mxCell>
        <mxCell id="146flQkY3l9YvQhqU9-r-5" value="" style="endArrow=none;html=1;rounded=0;exitX=0.5;exitY=1;exitDx=0;exitDy=0;entryX=0.25;entryY=0;entryDx=0;entryDy=0;" edge="1" parent="1" source="146flQkY3l9YvQhqU9-r-3" target="5m4GdKWQHqqGuJiY5jLK-12">
          <mxGeometry width="50" height="50" relative="1" as="geometry">
            <mxPoint x="2030" y="1140" as="sourcePoint" />
            <mxPoint x="1810" y="1000" as="targetPoint" />
            <Array as="points" />
          </mxGeometry>
        </mxCell>
        <mxCell id="146flQkY3l9YvQhqU9-r-10" value="Location" style="ellipse;whiteSpace=wrap;html=1;" vertex="1" parent="1">
          <mxGeometry x="2150" y="1030" width="80" height="40" as="geometry" />
        </mxCell>
        <mxCell id="146flQkY3l9YvQhqU9-r-11" value="м" style="text;html=1;strokeColor=none;fillColor=none;align=center;verticalAlign=middle;whiteSpace=wrap;rounded=0;" vertex="1" parent="1">
          <mxGeometry x="1020" y="790" width="60" height="30" as="geometry" />
        </mxCell>
        <mxCell id="146flQkY3l9YvQhqU9-r-12" value="1" style="text;html=1;strokeColor=none;fillColor=none;align=center;verticalAlign=middle;whiteSpace=wrap;rounded=0;" vertex="1" parent="1">
          <mxGeometry x="1215" y="700" width="60" height="30" as="geometry" />
        </mxCell>
        <mxCell id="146flQkY3l9YvQhqU9-r-13" value="м" style="text;html=1;strokeColor=none;fillColor=none;align=center;verticalAlign=middle;whiteSpace=wrap;rounded=0;" vertex="1" parent="1">
          <mxGeometry x="1880" y="800" width="60" height="30" as="geometry" />
        </mxCell>
        <mxCell id="146flQkY3l9YvQhqU9-r-14" value="м" style="text;html=1;strokeColor=none;fillColor=none;align=center;verticalAlign=middle;whiteSpace=wrap;rounded=0;" vertex="1" parent="1">
          <mxGeometry x="1985" y="920" width="60" height="30" as="geometry" />
        </mxCell>
        <mxCell id="146flQkY3l9YvQhqU9-r-23" value="lockedStatus" style="ellipse;whiteSpace=wrap;html=1;" vertex="1" parent="1">
          <mxGeometry x="905" y="950" width="90" height="40" as="geometry" />
        </mxCell>
        <mxCell id="146flQkY3l9YvQhqU9-r-24" value="" style="endArrow=none;html=1;rounded=0;entryX=1;entryY=0.5;entryDx=0;entryDy=0;exitX=0;exitY=0.25;exitDx=0;exitDy=0;" edge="1" parent="1" source="5m4GdKWQHqqGuJiY5jLK-162" target="146flQkY3l9YvQhqU9-r-23">
          <mxGeometry width="50" height="50" relative="1" as="geometry">
            <mxPoint x="1080" y="1070" as="sourcePoint" />
            <mxPoint x="1040" y="1070" as="targetPoint" />
          </mxGeometry>
        </mxCell>
        <mxCell id="146flQkY3l9YvQhqU9-r-25" value="&lt;u&gt;sheduleID&lt;/u&gt;" style="ellipse;whiteSpace=wrap;html=1;" vertex="1" parent="1">
          <mxGeometry x="1370" y="450" width="90" height="40" as="geometry" />
        </mxCell>
        <mxCell id="146flQkY3l9YvQhqU9-r-26" value="" style="endArrow=none;html=1;rounded=0;exitX=1;exitY=0;exitDx=0;exitDy=0;entryX=0;entryY=0;entryDx=0;entryDy=0;" edge="1" parent="1" source="dWql0YSoLtNqnmDHUXrx-1" target="146flQkY3l9YvQhqU9-r-3">
          <mxGeometry width="50" height="50" relative="1" as="geometry">
            <mxPoint x="1960" y="890" as="sourcePoint" />
            <mxPoint x="1930" y="1080" as="targetPoint" />
            <Array as="points" />
          </mxGeometry>
        </mxCell>
        <mxCell id="146flQkY3l9YvQhqU9-r-27" value="" style="endArrow=none;html=1;rounded=0;entryX=0.5;entryY=1;entryDx=0;entryDy=0;exitX=1;exitY=0.25;exitDx=0;exitDy=0;" edge="1" parent="1" source="5m4GdKWQHqqGuJiY5jLK-6" target="146flQkY3l9YvQhqU9-r-25">
          <mxGeometry width="50" height="50" relative="1" as="geometry">
            <mxPoint x="1730" y="770" as="sourcePoint" />
            <mxPoint x="1675" y="620" as="targetPoint" />
          </mxGeometry>
        </mxCell>
        <mxCell id="146flQkY3l9YvQhqU9-r-28" value="1" style="text;html=1;strokeColor=none;fillColor=none;align=center;verticalAlign=middle;whiteSpace=wrap;rounded=0;" vertex="1" parent="1">
          <mxGeometry x="1980" y="985" width="60" height="30" as="geometry" />
        </mxCell>
        <mxCell id="146flQkY3l9YvQhqU9-r-30" value="м" style="text;html=1;strokeColor=none;fillColor=none;align=center;verticalAlign=middle;whiteSpace=wrap;rounded=0;" vertex="1" parent="1">
          <mxGeometry x="1270" y="780" width="60" height="30" as="geometry" />
        </mxCell>
        <mxCell id="146flQkY3l9YvQhqU9-r-31" value="&lt;u&gt;TrainID&lt;/u&gt;" style="ellipse;whiteSpace=wrap;html=1;" vertex="1" parent="1">
          <mxGeometry x="1875" y="710" width="70" height="40" as="geometry" />
        </mxCell>
        <mxCell id="146flQkY3l9YvQhqU9-r-32" value="" style="endArrow=none;html=1;rounded=0;entryX=0.5;entryY=1;entryDx=0;entryDy=0;exitX=0.25;exitY=0;exitDx=0;exitDy=0;" edge="1" parent="1" source="146flQkY3l9YvQhqU9-r-3" target="146flQkY3l9YvQhqU9-r-31">
          <mxGeometry width="50" height="50" relative="1" as="geometry">
            <mxPoint x="2000" y="850" as="sourcePoint" />
            <mxPoint x="2000" y="780" as="targetPoint" />
          </mxGeometry>
        </mxCell>
        <mxCell id="146flQkY3l9YvQhqU9-r-34" value="" style="endArrow=none;html=1;rounded=0;exitX=1;exitY=0.5;exitDx=0;exitDy=0;entryX=0;entryY=1;entryDx=0;entryDy=0;" edge="1" parent="1" source="146flQkY3l9YvQhqU9-r-35" target="5m4GdKWQHqqGuJiY5jLK-1">
          <mxGeometry width="50" height="50" relative="1" as="geometry">
            <mxPoint x="865" y="1480" as="sourcePoint" />
            <mxPoint x="1290" y="1200" as="targetPoint" />
          </mxGeometry>
        </mxCell>
        <mxCell id="146flQkY3l9YvQhqU9-r-35" value="&lt;u style=&quot;border-color: var(--border-color);&quot;&gt;StationNameTo&lt;/u&gt;" style="ellipse;whiteSpace=wrap;html=1;" vertex="1" parent="1">
          <mxGeometry x="775" y="1460" width="90" height="40" as="geometry" />
        </mxCell>
        <mxCell id="146flQkY3l9YvQhqU9-r-38" value="" style="endArrow=none;html=1;rounded=0;exitX=1;exitY=1;exitDx=0;exitDy=0;entryX=0;entryY=0.5;entryDx=0;entryDy=0;" edge="1" parent="1" source="dWql0YSoLtNqnmDHUXrx-1" target="5m4GdKWQHqqGuJiY5jLK-12">
          <mxGeometry width="50" height="50" relative="1" as="geometry">
            <mxPoint x="1400" y="1075" as="sourcePoint" />
            <mxPoint x="1970" y="1005" as="targetPoint" />
            <Array as="points" />
          </mxGeometry>
        </mxCell>
        <mxCell id="146flQkY3l9YvQhqU9-r-39" value="1" style="text;html=1;strokeColor=none;fillColor=none;align=center;verticalAlign=middle;whiteSpace=wrap;rounded=0;" vertex="1" parent="1">
          <mxGeometry x="1895" y="1015" width="60" height="30" as="geometry" />
        </mxCell>
        <mxCell id="146flQkY3l9YvQhqU9-r-40" value="м" style="text;html=1;strokeColor=none;fillColor=none;align=center;verticalAlign=middle;whiteSpace=wrap;rounded=0;" vertex="1" parent="1">
          <mxGeometry x="1400" y="945" width="60" height="30" as="geometry" />
        </mxCell>
        <mxCell id="146flQkY3l9YvQhqU9-r-41" value="&lt;u&gt;StopName&lt;/u&gt;" style="ellipse;whiteSpace=wrap;html=1;" vertex="1" parent="1">
          <mxGeometry x="2080" y="780" width="70" height="40" as="geometry" />
        </mxCell>
        <mxCell id="146flQkY3l9YvQhqU9-r-42" value="" style="endArrow=none;html=1;rounded=0;entryX=0;entryY=1;entryDx=0;entryDy=0;exitX=1;exitY=0;exitDx=0;exitDy=0;" edge="1" parent="1" source="146flQkY3l9YvQhqU9-r-3" target="146flQkY3l9YvQhqU9-r-41">
          <mxGeometry width="50" height="50" relative="1" as="geometry">
            <mxPoint x="2040" y="850" as="sourcePoint" />
            <mxPoint x="2085" y="790" as="targetPoint" />
          </mxGeometry>
        </mxCell>
        <mxCell id="146flQkY3l9YvQhqU9-r-44" value="очередность&lt;br&gt;" style="ellipse;whiteSpace=wrap;html=1;" vertex="1" parent="1">
          <mxGeometry x="2115" y="940" width="90" height="40" as="geometry" />
        </mxCell>
        <mxCell id="146flQkY3l9YvQhqU9-r-45" value="" style="endArrow=none;html=1;rounded=0;entryX=0;entryY=0.5;entryDx=0;entryDy=0;exitX=0.75;exitY=0;exitDx=0;exitDy=0;" edge="1" parent="1" source="146flQkY3l9YvQhqU9-r-14" target="146flQkY3l9YvQhqU9-r-44">
          <mxGeometry width="50" height="50" relative="1" as="geometry">
            <mxPoint x="2000" y="930" as="sourcePoint" />
            <mxPoint x="2115" y="930" as="targetPoint" />
          </mxGeometry>
        </mxCell>
        <mxCell id="146flQkY3l9YvQhqU9-r-49" value="departureDate" style="ellipse;whiteSpace=wrap;html=1;" vertex="1" parent="1">
          <mxGeometry x="1460" y="450" width="90" height="40" as="geometry" />
        </mxCell>
        <mxCell id="146flQkY3l9YvQhqU9-r-50" value="arrivalDate" style="ellipse;whiteSpace=wrap;html=1;" vertex="1" parent="1">
          <mxGeometry x="1562.5" y="460" width="90" height="40" as="geometry" />
        </mxCell>
        <mxCell id="146flQkY3l9YvQhqU9-r-51" value="" style="endArrow=none;html=1;rounded=0;entryX=0.5;entryY=1;entryDx=0;entryDy=0;exitX=1;exitY=0.25;exitDx=0;exitDy=0;" edge="1" parent="1" source="5m4GdKWQHqqGuJiY5jLK-6" target="146flQkY3l9YvQhqU9-r-49">
          <mxGeometry width="50" height="50" relative="1" as="geometry">
            <mxPoint x="1370" y="730" as="sourcePoint" />
            <mxPoint x="1425" y="500" as="targetPoint" />
          </mxGeometry>
        </mxCell>
        <mxCell id="146flQkY3l9YvQhqU9-r-52" value="" style="endArrow=none;html=1;rounded=0;entryX=0.387;entryY=1;entryDx=0;entryDy=0;exitX=1;exitY=0.5;exitDx=0;exitDy=0;entryPerimeter=0;" edge="1" parent="1" source="5m4GdKWQHqqGuJiY5jLK-6" target="146flQkY3l9YvQhqU9-r-50">
          <mxGeometry width="50" height="50" relative="1" as="geometry">
            <mxPoint x="1380" y="740" as="sourcePoint" />
            <mxPoint x="1435" y="510" as="targetPoint" />
          </mxGeometry>
        </mxCell>
        <mxCell id="146flQkY3l9YvQhqU9-r-53" value="trainStatus" style="ellipse;whiteSpace=wrap;html=1;" vertex="1" parent="1">
          <mxGeometry x="1650" y="450" width="90" height="40" as="geometry" />
        </mxCell>
        <mxCell id="146flQkY3l9YvQhqU9-r-54" value="" style="endArrow=none;html=1;rounded=0;exitX=1;exitY=0.5;exitDx=0;exitDy=0;" edge="1" parent="1" source="5m4GdKWQHqqGuJiY5jLK-6" target="146flQkY3l9YvQhqU9-r-53">
          <mxGeometry width="50" height="50" relative="1" as="geometry">
            <mxPoint x="1370" y="750" as="sourcePoint" />
            <mxPoint x="1607" y="510" as="targetPoint" />
          </mxGeometry>
        </mxCell>
        <mxCell id="146flQkY3l9YvQhqU9-r-55" value="" style="endArrow=none;html=1;rounded=0;entryX=1;entryY=0;entryDx=0;entryDy=0;exitX=0;exitY=1;exitDx=0;exitDy=0;" edge="1" parent="1" source="5m4GdKWQHqqGuJiY5jLK-12" target="5m4GdKWQHqqGuJiY5jLK-2">
          <mxGeometry width="50" height="50" relative="1" as="geometry">
            <mxPoint x="1630" y="1290" as="sourcePoint" />
            <mxPoint x="1370" y="1168" as="targetPoint" />
          </mxGeometry>
        </mxCell>
        <mxCell id="146flQkY3l9YvQhqU9-r-56" value="&lt;span style=&quot;color: rgb(0, 0, 0); font-family: Helvetica; font-size: 12px; font-style: normal; font-variant-ligatures: normal; font-variant-caps: normal; font-weight: 400; letter-spacing: normal; orphans: 2; text-align: center; text-indent: 0px; text-transform: none; widows: 2; word-spacing: 0px; -webkit-text-stroke-width: 0px; background-color: rgb(251, 251, 251); text-decoration-thickness: initial; text-decoration-style: initial; text-decoration-color: initial; float: none; display: inline !important;&quot;&gt;1&lt;/span&gt;" style="text;whiteSpace=wrap;html=1;" vertex="1" parent="1">
          <mxGeometry x="1930" y="1080" width="35" height="40" as="geometry" />
        </mxCell>
        <mxCell id="146flQkY3l9YvQhqU9-r-58" value="м" style="text;html=1;strokeColor=none;fillColor=none;align=center;verticalAlign=middle;whiteSpace=wrap;rounded=0;" vertex="1" parent="1">
          <mxGeometry x="1690" y="1230" width="60" height="30" as="geometry" />
        </mxCell>
        <mxCell id="146flQkY3l9YvQhqU9-r-60" value="" style="endArrow=none;html=1;rounded=0;entryX=1;entryY=0;entryDx=0;entryDy=0;exitX=1;exitY=0.25;exitDx=0;exitDy=0;" edge="1" parent="1" source="146flQkY3l9YvQhqU9-r-56" target="5m4GdKWQHqqGuJiY5jLK-1">
          <mxGeometry width="50" height="50" relative="1" as="geometry">
            <mxPoint x="1630" y="1290" as="sourcePoint" />
            <mxPoint x="1370" y="1168" as="targetPoint" />
          </mxGeometry>
        </mxCell>
        <mxCell id="146flQkY3l9YvQhqU9-r-64" value="&lt;span style=&quot;color: rgb(0, 0, 0); font-family: Helvetica; font-size: 12px; font-style: normal; font-variant-ligatures: normal; font-variant-caps: normal; font-weight: 400; letter-spacing: normal; orphans: 2; text-align: center; text-indent: 0px; text-transform: none; widows: 2; word-spacing: 0px; -webkit-text-stroke-width: 0px; background-color: rgb(251, 251, 251); text-decoration-thickness: initial; text-decoration-style: initial; text-decoration-color: initial; float: none; display: inline !important;&quot;&gt;1&lt;/span&gt;" style="text;whiteSpace=wrap;html=1;" vertex="1" parent="1">
          <mxGeometry x="1875" y="1060" width="40" height="40" as="geometry" />
        </mxCell>
        <mxCell id="146flQkY3l9YvQhqU9-r-68" value="м" style="text;html=1;strokeColor=none;fillColor=none;align=center;verticalAlign=middle;whiteSpace=wrap;rounded=0;" vertex="1" parent="1">
          <mxGeometry x="1380" y="1080" width="60" height="30" as="geometry" />
        </mxCell>
      </root>
    </mxGraphModel>
  </diagram>
</mxfile>
